<?xml version="1.0" encoding="UTF-8" standalone="no"?>
<svg
   width="32"
   height="32"
   viewBox="0 0 8.4666667 8.4666667"
   version="1.1"
   id="svg5">
  <defs id="defs2" />
  <g id="layer1">
    <path
       style="fill:#000000;stroke-width:0.00633041"
       d="m 1.2759875,5.6584229 c -0.2325625,-0.0052 -0.47370454,0.010313 -0.70100122,-0.0076 -0.0177375,-0.2951587 -0.00253,-0.6039634 -0.0076,-0.9043692 0,-0.4418997 0,-0.8837993 0,-1.3256989 C 0.77106402,3.2170771 0.97474193,3.0133996 1.17842,2.8097223 c 0.460364,0 0.9207281,0 1.3810921,0 0.046749,0.0864 0.00854,0.2055328 0.02095,0.3051645 -0.010148,0.101164 0.021876,0.2221254 -0.01898,0.3088735 C 2.6638172,3.312398 2.8004374,3.1817517 2.9166466,3.063608 3.0079814,2.9827544 3.0869107,2.8719784 3.1859505,2.8097093 c 0.224421,0 0.4488421,0 0.6732631,0 0.065578,0.072507 0.098593,0.177627 0.16366,0.246884 0.095267,-0.073462 0.1686064,-0.1870489 0.2668618,-0.246886 0.2664791,0.00512 0.5414145,-0.01018 0.8026488,0.0076 0.017799,0.294463 0.00269,0.6025602 0.00782,0.9022731 3.52e-5,0.1408966 7.04e-5,0.2817931 1.056e-4,0.4226897 C 5.2331421,3.8301249 5.4842199,3.5864201 5.7255571,3.3556692 5.9913606,3.1118369 6.2924933,2.858612 6.6630274,2.813898 7.1601709,2.7590621 7.6671861,3.0760561 7.8319606,3.5489963 7.8930938,3.7191296 7.9147112,3.9035374 7.8885304,4.0820836 7.8549838,4.3695601 7.694078,4.6210837 7.5151214,4.8433906 7.2358441,5.1677204 6.9014844,5.474893 6.4845399,5.6026517 6.0847097,5.7353382 5.630473,5.6060932 5.3390024,5.3070574 5.2350306,5.1973551 5.1512963,5.0646584 5.1033294,4.9208944 c 0.014525,0.09885 -0.026617,0.1730419 -0.1064608,0.2300919 -0.1714202,0.168258 -0.3360621,0.3438626 -0.511833,0.507405 -0.2280303,0 -0.4560606,0 -0.6840909,0 -0.093595,-0.072314 -0.078491,-0.2107871 -0.113409,-0.303864 -0.07867,0.1025525 -0.1993016,0.2025665 -0.2942955,0.3038812 -0.2725367,0 -0.5450734,0 -0.8176101,0 -0.032931,-0.1224096 -0.00671,-0.266365 -0.016248,-0.3972932 -0.00774,-0.077805 0.031708,-0.2704325 -0.067845,-0.124799 -0.1740579,0.1740327 -0.3481155,0.3480658 -0.522173,0.522099 -0.2311254,2.5e-6 -0.4622508,5.1e-6 -0.6933762,7.6e-6 z M 6.7807146,4.9519973 C 7.2300928,4.9565728 7.6479737,4.6121004 7.7461827,4.1751839 7.865878,3.7156087 7.6095792,3.1975479 7.1712667,3.0135863 6.7585597,2.824767 6.2239646,2.9490795 5.9496551,3.3154036 5.6601081,3.6756778 5.6642645,4.2360982 5.9660348,4.5884535 6.1623757,4.8228234 6.4723159,4.9743484 6.7807146,4.9519973 Z M 6.7617216,4.3914858 C 6.5169695,4.4043496 6.3401328,4.1578541 6.3499495,3.9286533 6.3370777,3.6902348 6.559101,3.4608172 6.8025132,3.4934418 7.0861862,3.5051823 7.2373314,3.856533 7.1432056,4.1011638 7.0929043,4.2612825 6.9384083,4.405946 6.7617216,4.3914858 Z M 6.6651826,4.2651939 c 0.011225,-0.097987 -0.078437,-0.2063278 -0.162995,-0.2637282 -0.08052,-0.019638 4.8e-4,0.1347484 0.032708,0.1688572 0.035208,0.04046 0.077326,0.080527 0.1302874,0.094871 z M 1.8760234,4.9415341 c 0.1957779,-5.433e-4 0.3915558,-0.00109 0.5873337,-0.00163 -0.00117,-0.1913816 0.00662,-0.3868204 0,-0.5757343 -0.1899129,-0.00221 -0.3798259,-0.00443 -0.5697388,-0.00664 -0.025651,-0.1041781 0.00809,-0.1835897 0.1283756,-0.148762 0.1397379,0 0.2794759,0 0.4192138,0 0,-0.1894652 0,-0.3789304 0,-0.5683956 -0.1759978,-0.017908 -0.3581715,-0.00255 -0.5365367,-0.0077 -0.060411,-0.107316 0.028415,-0.1497017 0.1305464,-0.1250146 0.1427174,-0.00159 0.2854348,-0.00318 0.4281522,-0.00476 0,-0.1920176 0,-0.3840353 0,-0.5760529 -0.3924858,0 -0.7849717,0 -1.1774575,0 9.454e-4,0.6692683 -0.00624,1.3400273 -2.3e-4,2.0083667 0.1847877,0.017952 0.3964956,0.00163 0.5903413,0.00633 z m 1.7105195,2.55e-5 c 0.1003872,-5.433e-4 0.2007745,-0.00109 0.3011617,-0.00163 0.00179,-0.2940348 -0.00959,-0.5908488 -0.00288,-0.8830924 0.072056,0.024743 0.090958,0.1334201 0.1432079,0.1921854 0.1444065,0.2338071 0.2856167,0.4634725 0.4332336,0.6942068 0.1759888,-0.00109 0.3519775,-0.00217 0.5279663,-0.00326 0,-0.6710446 0,-1.3420893 0,-2.0131339 -0.2025848,0 -0.4051695,0 -0.6077543,0 -3.23e-4,0.3049394 0.00687,0.6098295 0.0099,0.9147469 C 4.3241021,3.8217039 4.2983881,3.7190101 4.2561663,3.6605609 4.1056682,3.4159247 3.9552018,3.1692403 3.8070071,2.9236694 c -0.1741718,0 -0.3483436,0 -0.5225154,0 -0.017941,0.3566221 -0.0026,0.7194224 -0.0077,1.0784281 0.00288,0.3116706 -0.00574,0.6281073 0.00428,0.9368193 0.097838,0.0095 0.2046554,3.373e-4 0.3054712,0.00264 z m 1.5117746,-0.032684 c 0.024374,-0.087192 -0.030163,-0.03116 0,0 z M 2.5598924,4.1329539 c 0.00718,-0.1041573 0.00696,-0.1493071 7.3e-4,-0.2534986 -7.544e-4,-0.058667 -0.00224,-0.2702633 -0.0025,-0.2247977 -3.57e-5,0.1963056 -7.18e-5,0.3926112 -1.081e-4,0.5889168 6.12e-4,-0.036862 0.00134,-0.07383 0.00187,-0.1106205 z m 2.5369258,0.056809 c 0.033124,-0.011759 -0.031827,-0.018839 0,0 z"
       id="path507" />
  </g>
</svg>
